999
"DXF R12 Output" (www.mydxf.blogspot.com)
 0 
SECTION
 2 
HEADER
 9 
$ACADVER
 1 
AC1009
 9 
$EXTMIN
 10 
 0 
 20 
 0 
 9 
$EXTMAX
 10 
 8.5 
 20 
 11 
 0 
ENDSEC
 0 
SECTION
 2 
ENTITIES
0
LINE
8
Layer 1
10
13.988300
20
14.025600
11
13.693660
21
14.091640
0
LINE
8
Layer 1
10
13.693660
20
14.091640
11
10.145300
21
12.819700
0
LINE
8
Layer 1
10
10.145300
20
12.819700
11
8.662450
21
13.361738
0
LINE
8
Layer 1
10
8.662450
20
13.361738
11
7.089420
21
13.546700
0
LINE
8
Layer 1
10
7.089420
20
13.546700
11
5.500406
21
13.357858
0
LINE
8
Layer 1
10
5.500406
20
13.357858
11
4.003890
21
12.804738
0
LINE
8
Layer 1
10
4.003890
20
12.804738
11
0.414030
21
14.091668
0
LINE
8
Layer 1
10
0.414030
20
14.091668
11
0.119390
21
14.025628
0
LINE
8
Layer 1
10
0.119390
20
14.025628
11
0.053340
21
13.730700
0
LINE
8
Layer 1
10
0.053340
20
13.730700
11
1.291450
21
10.277150
0
LINE
8
Layer 1
10
1.291450
20
10.277150
11
0.564268
21
8.594866
0
LINE
8
Layer 1
10
0.564268
20
8.594866
11
0.316089
21
6.773330
0
LINE
8
Layer 1
10
0.316089
20
6.773330
11
0.453940
21
5.410038
0
LINE
8
Layer 1
10
0.453940
20
5.410038
11
0.849197
21
4.139446
0
LINE
8
Layer 1
10
0.849197
20
4.139446
11
1.474417
21
2.989007
0
LINE
8
Layer 1
10
1.474417
20
2.989007
11
2.302155
21
1.986175
0
LINE
8
Layer 1
10
2.302155
20
1.986175
11
3.304968
21
1.158404
0
LINE
8
Layer 1
10
3.304968
20
1.158404
11
4.455413
21
0.533149
0
LINE
8
Layer 1
10
4.455413
20
0.533149
11
5.726044
21
0.137863
0
LINE
8
Layer 1
10
5.726044
20
0.137863
11
7.089419
21
0.000000
0
LINE
8
Layer 1
10
7.089419
20
0.000000
11
8.452711
21
0.137863
0
LINE
8
Layer 1
10
8.452711
20
0.137863
11
9.723303
21
0.533148
0
LINE
8
Layer 1
10
9.723303
20
0.533148
11
10.873742
21
1.158402
0
LINE
8
Layer 1
10
10.873742
20
1.158402
11
11.876574
21
1.986171
0
LINE
8
Layer 1
10
11.876574
20
1.986171
11
12.704345
21
2.989002
0
LINE
8
Layer 1
10
12.704345
20
2.989002
11
13.329600
21
4.139442
0
LINE
8
Layer 1
10
13.329600
20
4.139442
11
13.724886
21
5.410035
0
LINE
8
Layer 1
10
13.724886
20
5.410035
11
13.862749
21
6.773330
0
LINE
8
Layer 1
10
13.862749
20
6.773330
11
13.603035
21
8.635999
0
LINE
8
Layer 1
10
13.603035
20
8.635999
11
12.842519
21
10.349650
0
LINE
8
Layer 1
10
12.842519
20
10.349650
11
14.054700
21
13.730700
0
LINE
8
Layer 1
10
14.054700
20
13.730700
11
13.988300
21
14.025600
0
LINE
8
Layer 1
10
13.988300
20
14.025600
11
13.988300
21
14.025600
0
LINE
8
Layer 1
10
12.264500
20
10.410000
11
12.293851
21
10.160516
0
LINE
8
Layer 1
10
12.293851
20
10.160516
11
13.042446
21
8.542148
0
LINE
8
Layer 1
10
13.042446
20
8.542148
11
13.298281
21
6.773286
0
LINE
8
Layer 1
10
13.298281
20
6.773286
11
13.171916
21
5.523539
0
LINE
8
Layer 1
10
13.171916
20
5.523539
11
12.809592
21
4.358800
0
LINE
8
Layer 1
10
12.809592
20
4.358800
11
12.236468
21
3.304228
0
LINE
8
Layer 1
10
12.236468
20
3.304228
11
11.477702
21
2.384981
0
LINE
8
Layer 1
10
11.477702
20
2.384981
11
10.558454
21
1.626217
0
LINE
8
Layer 1
10
10.558454
20
1.626217
11
9.503883
21
1.053094
0
LINE
8
Layer 1
10
9.503883
20
1.053094
11
8.339145
21
0.690771
0
LINE
8
Layer 1
10
8.339145
20
0.690771
11
7.089401
21
0.564406
0
LINE
8
Layer 1
10
7.089401
20
0.564406
11
5.839657
21
0.690771
0
LINE
8
Layer 1
10
5.839657
20
0.690771
11
4.674920
21
1.053096
0
LINE
8
Layer 1
10
4.674920
20
1.053096
11
3.620348
21
1.626219
0
LINE
8
Layer 1
10
3.620348
20
1.626219
11
2.701100
21
2.384985
0
LINE
8
Layer 1
10
2.701100
20
2.384985
11
1.942335
21
3.304233
0
LINE
8
Layer 1
10
1.942335
20
3.304233
11
1.369211
21
4.358805
0
LINE
8
Layer 1
10
1.369211
20
4.358805
11
1.006887
21
5.523542
0
LINE
8
Layer 1
10
1.006887
20
5.523542
11
0.880521
21
6.773286
0
LINE
8
Layer 1
10
0.880521
20
6.773286
11
1.125207
21
8.503661
0
LINE
8
Layer 1
10
1.125207
20
8.503661
11
1.841487
21
10.093066
0
LINE
8
Layer 1
10
1.841487
20
10.093066
11
1.868863
21
10.339446
0
LINE
8
Layer 1
10
1.868863
20
10.339446
11
0.786270
21
13.358400
0
LINE
8
Layer 1
10
0.786270
20
13.358400
11
3.930220
21
12.231490
0
LINE
8
Layer 1
10
3.930220
20
12.231490
11
4.158820
21
12.248705
0
LINE
8
Layer 1
10
4.158820
20
12.248705
11
5.576387
21
12.795510
0
LINE
8
Layer 1
10
5.576387
20
12.795510
11
7.089410
21
12.982482
0
LINE
8
Layer 1
10
7.089410
20
12.982482
11
8.587479
21
12.799320
0
LINE
8
Layer 1
10
8.587479
20
12.799320
11
9.992630
21
12.263098
0
LINE
8
Layer 1
10
9.992630
20
12.263098
11
10.220101
21
12.246730
0
LINE
8
Layer 1
10
10.220101
20
12.246730
11
13.321721
21
13.358680
0
LINE
8
Layer 1
10
13.321721
20
13.358680
11
12.264500
21
10.410000
0
LINE
8
Layer 1
10
12.264500
20
10.410000
11
12.264500
21
10.410000
0
LINE
8
Layer 1
10
9.632240
20
4.512730
11
9.543402
21
4.073689
0
LINE
8
Layer 1
10
9.543402
20
4.073689
11
9.301264
21
3.714817
0
LINE
8
Layer 1
10
9.301264
20
3.714817
11
8.942392
21
3.472678
0
LINE
8
Layer 1
10
8.942392
20
3.472678
11
8.503350
21
3.383840
0
LINE
8
Layer 1
10
8.503350
20
3.383840
11
8.064308
21
3.472678
0
LINE
8
Layer 1
10
8.064308
20
3.472678
11
7.705436
21
3.714816
0
LINE
8
Layer 1
10
7.705436
20
3.714816
11
7.463298
21
4.073688
0
LINE
8
Layer 1
10
7.463298
20
4.073688
11
7.374460
21
4.512730
0
LINE
8
Layer 1
10
7.374460
20
4.512730
11
7.374460
21
4.535590
0
LINE
8
Layer 1
10
7.374460
20
4.535590
11
8.180099
21
4.923504
0
LINE
8
Layer 1
10
8.180099
20
4.923504
11
8.417409
21
5.253537
0
LINE
8
Layer 1
10
8.417409
20
5.253537
11
8.503350
21
5.641620
0
LINE
8
Layer 1
10
8.503350
20
5.641620
11
8.392282
21
6.080661
0
LINE
8
Layer 1
10
8.392282
20
6.080661
11
8.089577
21
6.439533
0
LINE
8
Layer 1
10
8.089577
20
6.439533
11
7.640981
21
6.681672
0
LINE
8
Layer 1
10
7.640981
20
6.681672
11
7.092240
21
6.770510
0
LINE
8
Layer 1
10
7.092240
20
6.770510
11
6.543499
21
6.681672
0
LINE
8
Layer 1
10
6.543499
20
6.681672
11
6.094903
21
6.439534
0
LINE
8
Layer 1
10
6.094903
20
6.439534
11
5.792198
21
6.080662
0
LINE
8
Layer 1
10
5.792198
20
6.080662
11
5.681130
21
5.641620
0
LINE
8
Layer 1
10
5.681130
20
5.641620
11
5.767071
21
5.253538
0
LINE
8
Layer 1
10
5.767071
20
5.253538
11
6.004380
21
4.923506
0
LINE
8
Layer 1
10
6.004380
20
4.923506
11
6.810020
21
4.535590
0
LINE
8
Layer 1
10
6.810020
20
4.535590
11
6.810020
21
4.512730
0
LINE
8
Layer 1
10
6.810020
20
4.512730
11
6.721182
21
4.073689
0
LINE
8
Layer 1
10
6.721182
20
4.073689
11
6.479044
21
3.714817
0
LINE
8
Layer 1
10
6.479044
20
3.714817
11
6.120172
21
3.472678
0
LINE
8
Layer 1
10
6.120172
20
3.472678
11
5.681130
21
3.383840
0
LINE
8
Layer 1
10
5.681130
20
3.383840
11
5.242088
21
3.472678
0
LINE
8
Layer 1
10
5.242088
20
3.472678
11
4.883216
21
3.714816
0
LINE
8
Layer 1
10
4.883216
20
3.714816
11
4.641078
21
4.073688
0
LINE
8
Layer 1
10
4.641078
20
4.073688
11
4.552240
21
4.512730
0
LINE
8
Layer 1
10
4.552240
20
4.512730
11
4.552240
21
4.794960
0
LINE
8
Layer 1
10
4.552240
20
4.794960
11
3.987800
21
4.794960
0
LINE
8
Layer 1
10
3.987800
20
4.794960
11
3.987800
21
4.512730
0
LINE
8
Layer 1
10
3.987800
20
4.512730
11
4.121057
21
3.854170
0
LINE
8
Layer 1
10
4.121057
20
3.854170
11
4.484263
21
3.315863
0
LINE
8
Layer 1
10
4.484263
20
3.315863
11
5.022570
21
2.952657
0
LINE
8
Layer 1
10
5.022570
20
2.952657
11
5.681130
21
2.819400
0
LINE
8
Layer 1
10
5.681130
20
2.819400
11
6.493577
21
3.027645
0
LINE
8
Layer 1
10
6.493577
20
3.027645
11
7.092240
21
3.578577
0
LINE
8
Layer 1
10
7.092240
20
3.578577
11
7.690903
21
3.027539
0
LINE
8
Layer 1
10
7.690903
20
3.027539
11
8.503350
21
2.819400
0
LINE
8
Layer 1
10
8.503350
20
2.819400
11
9.161910
21
2.952657
0
LINE
8
Layer 1
10
9.161910
20
2.952657
11
9.700217
21
3.315863
0
LINE
8
Layer 1
10
9.700217
20
3.315863
11
10.063423
21
3.854170
0
LINE
8
Layer 1
10
10.063423
20
3.854170
11
10.196680
21
4.512730
0
LINE
8
Layer 1
10
10.196680
20
4.512730
11
10.196700
21
4.794960
0
LINE
8
Layer 1
10
10.196700
20
4.794960
11
9.632240
21
4.794960
0
LINE
8
Layer 1
10
9.632240
20
4.794960
11
9.632240
21
4.512730
0
LINE
8
Layer 1
10
9.632240
20
4.512730
11
9.632240
21
4.512730
0
LINE
8
Layer 1
10
6.245570
20
5.641620
11
6.496818
21
6.038565
0
LINE
8
Layer 1
10
6.496818
20
6.038565
11
7.092236
21
6.206064
0
LINE
8
Layer 1
10
7.092236
20
6.206064
11
7.687654
21
6.038565
0
LINE
8
Layer 1
10
7.687654
20
6.038565
11
7.938902
21
5.641620
0
LINE
8
Layer 1
10
7.938902
20
5.641620
11
7.687654
21
5.244675
0
LINE
8
Layer 1
10
7.687654
20
5.244675
11
7.092236
21
5.077176
0
LINE
8
Layer 1
10
7.092236
20
5.077176
11
6.496818
21
5.244674
0
LINE
8
Layer 1
10
6.496818
20
5.244674
11
6.245570
21
5.641620
0
LINE
8
Layer 1
10
6.245570
20
5.641620
11
6.245570
21
5.641620
 0 
ENDSEC
 0 
EOF