0
SECTION
2
HEADER
9
$INSUNITS
70
4
9
$ACADVER
1
AC1014
9
$HANDSEED
5
FFFF
0
ENDSEC
0
SECTION
2
TABLES
0
TABLE
2
VPORT
5
8
100
AcDbSymbolTable
0
ENDTAB
0
TABLE
2
LTYPE
5
5
100
AcDbSymbolTable
0
LTYPE
5
14
100
AcDbSymbolTableRecord
100
AcDbLinetypeTableRecord
2
BYBLOCK
70
0
0
LTYPE
5
15
100
AcDbSymbolTableRecord
100
AcDbLinetypeTableRecord
2
BYLAYER
70
0
0
ENDTAB
0
TABLE
2
LAYER
5
2
100
AcDbSymbolTable
70
2
0
LAYER
5
50
100
AcDbSymbolTableRecord
100
AcDbLayerTableRecord
2
0
70
0
6
CONTINUOUS
0
ENDTAB
0
TABLE
2
STYLE
5
3
100
AcDbSymbolTable
70
1
0
STYLE
5
11
100
AcDbSymbolTableRecord
100
AcDbTextStyleTableRecord
2
STANDARD
70
0
0
ENDTAB
0
TABLE
2
VIEW
5
6
100
AcDbSymbolTable
70
0
0
ENDTAB
0
TABLE
2
UCS
5
7
100
AcDbSymbolTable
70
0
0
ENDTAB
0
TABLE
2
APPID
5
9
100
AcDbSymbolTable
70
2
0
APPID
5
12
100
AcDbSymbolTableRecord
100
AcDbRegAppTableRecord
2
ACAD
70
0
0
ENDTAB
0
TABLE
2
DIMSTYLE
5
A
100
AcDbSymbolTable
70
1
0
ENDTAB
0
TABLE
2
BLOCK_RECORD
5
1
100
AcDbSymbolTable
70
1
0
BLOCK_RECORD
5
1F
100
AcDbSymbolTableRecord
100
AcDbBlockTableRecord
2
*MODEL_SPACE
0
BLOCK_RECORD
5
1B
100
AcDbSymbolTableRecord
100
AcDbBlockTableRecord
2
*PAPER_SPACE
0
ENDTAB
0
ENDSEC
0
SECTION
2
BLOCKS
0
BLOCK
5
20
100
AcDbEntity
100
AcDbBlockBegin
2
*MODEL_SPACE
0
ENDBLK
5
21
100
AcDbEntity
100
AcDbBlockEnd
0
BLOCK
5
1C
100
AcDbEntity
100
AcDbBlockBegin
2
*PAPER_SPACE
0
ENDBLK
5
1D
100
AcDbEntity
100
AcDbBlockEnd
0
ENDSEC
0
SECTION
2
ENTITIES
0
LWPOLYLINE
5
100
100
AcDbEntity
8
0
100
AcDbPolyline
90
32
70
1
43
0.0
10
13.988300000000002
20
14.025600000000003
10
13.693660000000003
20
14.091640000000002
10
10.145300000000002
20
12.819700000000001
10
8.6624499999999998
20
13.361738000000001
10
7.0894199999999996
20
13.546700000000001
10
5.5004059999999999
20
13.357858
10
4.0038900000000002
20
12.804738000000002
10
0.41403000000000023
20
14.091667999999999
10
0.11939000000000002
20
14.025628000000001
10
0.053339999999999999
20
13.730700000000002
10
1.2914500000000002
20
10.277150000000002
10
0.56426799999999999
20
8.5948659999999997
10
0.31608900000000001
20
6.7733300000000005
10
0.45393999999999995
20
5.4100380000000001
10
0.84919699999999998
20
4.1394459999999995
10
1.4744170000000001
20
2.989007
10
2.302155
20
1.986175
10
3.3049680000000006
20
1.158404
10
4.4554130000000001
20
0.53314899999999998
10
5.7260439999999999
20
0.13786300000000001
10
7.0894190000000012
20
0
10
8.4527110000000008
20
0.13786300000000001
10
9.7233029999999996
20
0.53314799999999996
10
10.873742
20
1.1584020000000002
10
11.876574
20
1.9861709999999999
10
12.704345000000002
20
2.9890020000000002
10
13.329599999999999
20
4.1394419999999998
10
13.724885999999998
20
5.4100349999999997
10
13.862749000000001
20
6.7733300000000005
10
13.603035000000002
20
8.6359990000000018
10
12.842519000000001
20
10.34965
10
14.054700000000002
20
13.730700000000002
0
LWPOLYLINE
5
101
100
AcDbEntity
8
0
100
AcDbPolyline
90
51
70
1
43
0.0
10
7.3744600000000018
20
4.5355900000000009
10
8.1800990000000002
20
4.9235040000000012
10
8.4174089999999993
20
5.2535370000000006
10
8.5033499999999993
20
5.6416199999999996
10
8.3922820000000016
20
6.080661000000001
10
8.089577000000002
20
6.4395330000000008
10
7.640981
20
6.6816720000000007
10
7.0922399999999994
20
6.7705100000000007
10
6.5434990000000006
20
6.6816720000000007
10
6.0949030000000004
20
6.4395340000000001
10
5.7921980000000008
20
6.0806620000000011
10
5.6811300000000013
20
5.6416199999999996
10
5.7670710000000005
20
5.2535379999999998
10
6.0043800000000003
20
4.9235059999999997
10
6.8100199999999997
20
4.5355900000000009
10
6.8100199999999997
20
4.5127300000000004
10
6.7211820000000007
20
4.0736889999999999
10
6.479044
20
3.714817
10
6.1201720000000002
20
3.4726780000000002
10
5.6811300000000013
20
3.3838400000000002
10
5.2420880000000007
20
3.4726780000000002
10
4.883216
20
3.7148160000000008
10
4.6410780000000003
20
4.0736879999999998
10
4.5522400000000012
20
4.5127300000000004
10
4.5522400000000012
20
4.7949599999999997
10
3.9878
20
4.7949599999999997
10
3.9878
20
4.5127300000000004
10
4.1210570000000004
20
3.8541699999999999
10
4.4842629999999994
20
3.3158630000000002
10
5.0225700000000009
20
2.9526570000000003
10
5.6811300000000013
20
2.8194000000000004
10
6.4935769999999993
20
3.0276450000000006
10
7.0922399999999994
20
3.5785770000000001
10
7.6909030000000005
20
3.027539
10
8.5033499999999993
20
2.8194000000000004
10
9.1619100000000007
20
2.9526570000000003
10
9.7002170000000003
20
3.3158630000000002
10
10.063423
20
3.8541699999999999
10
10.196680000000001
20
4.5127300000000004
10
10.1967
20
4.7949599999999997
10
9.6322399999999995
20
4.7949599999999997
10
9.6322399999999995
20
4.5127300000000004
10
9.6322399999999995
20
4.5127300000000004
10
9.5434020000000004
20
4.0736889999999999
10
9.3012639999999998
20
3.714817
10
8.9423919999999999
20
3.4726780000000002
10
8.5033499999999993
20
3.3838400000000002
10
8.0643080000000005
20
3.4726780000000002
10
7.7054359999999997
20
3.7148160000000008
10
7.463298
20
4.0736879999999998
10
7.3744600000000018
20
4.5127300000000004
0
LINE
5
102
100
AcDbEntity
8
0
100
AcDbLine
10
12.2645
20
10.410000000000002
30
0
11
12.2645
21
10.410000000000002
31
0
0
LWPOLYLINE
5
103
100
AcDbEntity
8
0
100
AcDbPolyline
90
1
70
1
43
0.0
10
13.988300000000002
20
14.025600000000003
0
LINE
5
104
100
AcDbEntity
8
0
100
AcDbLine
10
6.2455700000000007
20
5.6416199999999996
30
0
11
6.2455700000000007
21
5.6416199999999996
31
0
0
ENDSEC
0
SECTION
2
OBJECTS
0
DICTIONARY
5
C
100
AcDbDictionary
3
ACAD_GROUP
350
D
3
ACAD_MLINESTYLE
350
17
0
DICTIONARY
5
D
100
AcDbDictionary
0
DICTIONARY
5
1A
330
C
100
AcDbDictionary
0
DICTIONARY
5
17
100
AcDbDictionary
0
ENDSEC
0
EOF
