999
"DXF R12 Output" (www.mydxf.blogspot.com)
 0 
SECTION
 2 
HEADER
 9 
$ACADVER
 1 
AC1009
 9 
$EXTMIN
 10 
 0 
 20 
 0 
 9 
$EXTMAX
 10 
 8.5 
 20 
 11 
 0 
ENDSEC
 0 
SECTION
 2 
ENTITIES
0
LINE
8
Layer 1
10
142.483000
20
26.807200
11
140.002037
21
31.724712
0
LINE
8
Layer 1
10
140.002037
20
31.724712
11
137.192663
21
36.513897
0
LINE
8
Layer 1
10
137.192663
20
36.513897
11
134.115406
21
41.184014
0
LINE
8
Layer 1
10
134.115406
20
41.184014
11
130.830793
21
45.744325
0
LINE
8
Layer 1
10
130.830793
20
45.744325
11
123.881600
21
54.572566
0
LINE
8
Layer 1
10
123.881600
20
54.572566
11
116.829300
21
63.072700
0
LINE
8
Layer 1
10
116.829300
20
63.072700
11
112.221991
21
68.745368
0
LINE
8
Layer 1
10
112.221991
20
68.745368
11
106.640800
21
75.349400
0
LINE
8
Layer 1
10
106.640800
20
75.349400
11
117.252600
21
76.901620
0
LINE
8
Layer 1
10
117.252600
20
76.901620
11
118.369599
21
77.258905
0
LINE
8
Layer 1
10
118.369599
20
77.258905
11
119.209470
21
77.902582
0
LINE
8
Layer 1
10
119.209470
20
77.902582
11
119.783455
21
78.761880
0
LINE
8
Layer 1
10
119.783455
20
78.761880
11
120.102795
21
79.766031
0
LINE
8
Layer 1
10
120.102795
20
79.766031
11
120.178732
21
80.844266
0
LINE
8
Layer 1
10
120.178732
20
80.844266
11
120.022508
21
81.925815
0
LINE
8
Layer 1
10
120.022508
20
81.925815
11
119.645363
21
82.939910
0
LINE
8
Layer 1
10
119.645363
20
82.939910
11
119.058540
21
83.815780
0
LINE
8
Layer 1
10
119.058540
20
83.815780
11
111.304053
21
92.498942
0
LINE
8
Layer 1
10
111.304053
20
92.498942
11
103.271765
21
100.893730
0
LINE
8
Layer 1
10
103.271765
20
100.893730
11
94.884990
21
108.933993
0
LINE
8
Layer 1
10
94.884990
20
108.933993
11
90.534705
21
112.800505
0
LINE
8
Layer 1
10
90.534705
20
112.800505
11
86.067040
21
116.553580
0
LINE
8
Layer 1
10
86.067040
20
116.553580
11
91.595387
21
116.404972
0
LINE
8
Layer 1
10
91.595387
20
116.404972
11
97.189988
21
116.465385
0
LINE
8
Layer 1
10
97.189988
20
116.465385
11
99.900476
21
116.751741
0
LINE
8
Layer 1
10
99.900476
20
116.751741
11
102.493539
21
117.303673
0
LINE
8
Layer 1
10
102.493539
20
117.303673
11
104.924515
21
118.192287
0
LINE
8
Layer 1
10
104.924515
20
118.192287
11
107.148740
21
119.488690
0
LINE
8
Layer 1
10
107.148740
20
119.488690
11
108.011622
21
120.091553
0
LINE
8
Layer 1
10
108.011622
20
120.091553
11
108.648964
21
120.887893
0
LINE
8
Layer 1
10
108.648964
20
120.887893
11
109.054803
21
121.819832
0
LINE
8
Layer 1
10
109.054803
20
121.819832
11
109.223175
21
122.829493
0
LINE
8
Layer 1
10
109.223175
20
122.829493
11
109.148118
21
123.858997
0
LINE
8
Layer 1
10
109.148118
20
123.858997
11
108.823668
21
124.850468
0
LINE
8
Layer 1
10
108.823668
20
124.850468
11
108.243863
21
125.746028
0
LINE
8
Layer 1
10
108.243863
20
125.746028
11
107.402740
21
126.487800
0
LINE
8
Layer 1
10
107.402740
20
126.487800
11
97.356074
21
133.232461
0
LINE
8
Layer 1
10
97.356074
20
133.232461
11
87.460215
21
140.101476
0
LINE
8
Layer 1
10
87.460215
20
140.101476
11
82.672191
21
143.727315
0
LINE
8
Layer 1
10
82.672191
20
143.727315
11
78.045893
21
147.557879
0
LINE
8
Layer 1
10
78.045893
20
147.557879
11
73.622662
21
151.651047
0
LINE
8
Layer 1
10
73.622662
20
151.651047
11
69.443840
21
156.064700
0
LINE
8
Layer 1
10
69.443840
20
156.064700
11
69.016979
21
156.466866
0
LINE
8
Layer 1
10
69.016979
20
156.466866
11
68.568952
21
156.742033
0
LINE
8
Layer 1
10
68.568952
20
156.742033
11
69.103079
21
157.759852
0
LINE
8
Layer 1
10
69.103079
20
157.759852
11
69.206598
21
158.756834
0
LINE
8
Layer 1
10
69.206598
20
158.756834
11
68.948961
21
159.664520
0
LINE
8
Layer 1
10
68.948961
20
159.664520
11
68.399621
21
160.414448
0
LINE
8
Layer 1
10
68.399621
20
160.414448
11
67.628031
21
160.938157
0
LINE
8
Layer 1
10
67.628031
20
160.938157
11
66.703644
21
161.167187
0
LINE
8
Layer 1
10
66.703644
20
161.167187
11
65.695914
21
161.033076
0
LINE
8
Layer 1
10
65.695914
20
161.033076
11
64.674292
21
160.467363
0
LINE
8
Layer 1
10
64.674292
20
160.467363
11
61.928541
21
158.164361
0
LINE
8
Layer 1
10
61.928541
20
158.164361
11
59.313511
21
155.730268
0
LINE
8
Layer 1
10
59.313511
20
155.730268
11
56.817047
21
153.178187
0
LINE
8
Layer 1
10
56.817047
20
153.178187
11
54.426995
21
150.521226
0
LINE
8
Layer 1
10
54.426995
20
150.521226
11
49.917509
21
144.945077
0
LINE
8
Layer 1
10
49.917509
20
144.945077
11
45.687817
21
139.106663
0
LINE
8
Layer 1
10
45.687817
20
139.106663
11
37.678876
21
127.062401
0
LINE
8
Layer 1
10
37.678876
20
127.062401
11
33.705157
21
121.066233
0
LINE
8
Layer 1
10
33.705157
20
121.066233
11
29.622292
21
115.227163
0
LINE
8
Layer 1
10
29.622292
20
115.227163
11
29.155745
21
114.272956
0
LINE
8
Layer 1
10
29.155745
20
114.272956
11
29.022572
21
113.218538
0
LINE
8
Layer 1
10
29.022572
20
113.218538
11
29.185732
21
112.140968
0
LINE
8
Layer 1
10
29.185732
20
112.140968
11
29.608182
21
111.117307
0
LINE
8
Layer 1
10
29.608182
20
111.117307
11
30.252882
21
110.224614
0
LINE
8
Layer 1
10
30.252882
20
110.224614
11
31.082790
21
109.539949
0
LINE
8
Layer 1
10
31.082790
20
109.539949
11
32.060863
21
109.140372
0
LINE
8
Layer 1
10
32.060863
20
109.140372
11
33.150062
21
109.102943
0
LINE
8
Layer 1
10
33.150062
20
109.102943
11
45.285608
21
110.944444
0
LINE
8
Layer 1
10
45.285608
20
110.944444
11
57.421162
21
112.912943
0
LINE
8
Layer 1
10
57.421162
20
112.912943
11
54.923498
21
107.056833
0
LINE
8
Layer 1
10
54.923498
20
107.056833
11
53.857228
21
104.650004
0
LINE
8
Layer 1
10
53.857228
20
104.650004
11
52.933832
21
102.894043
0
LINE
8
Layer 1
10
52.933832
20
102.894043
11
47.400076
21
94.101948
0
LINE
8
Layer 1
10
47.400076
20
94.101948
11
41.704930
21
85.389231
0
LINE
8
Layer 1
10
41.704930
20
85.389231
11
36.078584
21
76.644770
0
LINE
8
Layer 1
10
36.078584
20
76.644770
11
30.751232
21
67.757443
0
LINE
8
Layer 1
10
30.751232
20
67.757443
11
30.312191
21
66.591732
0
LINE
8
Layer 1
10
30.312191
20
66.591732
11
30.255141
21
65.406178
0
LINE
8
Layer 1
10
30.255141
20
65.406178
11
30.533450
21
64.270896
0
LINE
8
Layer 1
10
30.533450
20
64.270896
11
31.100485
21
63.255999
0
LINE
8
Layer 1
10
31.100485
20
63.255999
11
31.909613
21
62.431603
0
LINE
8
Layer 1
10
31.909613
20
62.431603
11
32.914202
21
61.867822
0
LINE
8
Layer 1
10
32.914202
20
61.867822
11
34.067619
21
61.634770
0
LINE
8
Layer 1
10
34.067619
20
61.634770
11
35.323232
21
61.802563
0
LINE
8
Layer 1
10
35.323232
20
61.802563
11
43.620563
21
64.088456
0
LINE
8
Layer 1
10
43.620563
20
64.088456
11
51.917932
21
66.120563
0
LINE
8
Layer 1
10
51.917932
20
66.120563
11
43.537713
21
54.174649
0
LINE
8
Layer 1
10
43.537713
20
54.174649
11
35.041057
21
42.308076
0
LINE
8
Layer 1
10
35.041057
20
42.308076
11
26.692563
21
30.346196
0
LINE
8
Layer 1
10
26.692563
20
30.346196
11
22.656565
21
24.274939
0
LINE
8
Layer 1
10
22.656565
20
24.274939
11
18.756832
21
18.114363
0
LINE
8
Layer 1
10
18.756832
20
18.114363
11
18.272975
21
16.917082
0
LINE
8
Layer 1
10
18.272975
20
16.917082
11
18.203852
21
15.700968
0
LINE
8
Layer 1
10
18.203852
20
15.700968
11
18.495885
21
14.537123
0
LINE
8
Layer 1
10
18.495885
20
14.537123
11
19.095496
21
13.496646
0
LINE
8
Layer 1
10
19.095496
20
13.496646
11
19.949107
21
12.650637
0
LINE
8
Layer 1
10
19.949107
20
12.650637
11
21.003141
21
12.070196
0
LINE
8
Layer 1
10
21.003141
20
12.070196
11
22.204018
21
11.826425
0
LINE
8
Layer 1
10
22.204018
20
11.826425
11
23.498162
21
11.990423
0
LINE
8
Layer 1
10
23.498162
20
11.990423
11
30.098579
21
13.834942
0
LINE
8
Layer 1
10
30.098579
20
13.834942
11
36.751582
21
15.533590
0
LINE
8
Layer 1
10
36.751582
20
15.533590
11
43.451547
21
17.080751
0
LINE
8
Layer 1
10
43.451547
20
17.080751
11
50.192850
21
18.470811
0
LINE
8
Layer 1
10
50.192850
20
18.470811
11
56.969866
21
19.698153
0
LINE
8
Layer 1
10
56.969866
20
19.698153
11
63.776973
21
20.757163
0
LINE
8
Layer 1
10
63.776973
20
20.757163
11
70.608546
21
21.642225
0
LINE
8
Layer 1
10
70.608546
20
21.642225
11
77.458962
21
22.347723
0
LINE
8
Layer 1
10
77.458962
20
22.347723
11
78.213906
21
13.306159
0
LINE
8
Layer 1
10
78.213906
20
13.306159
11
78.587852
21
4.116223
0
LINE
8
Layer 1
10
78.587852
20
4.116223
11
78.664932
21
3.231971
0
LINE
8
Layer 1
10
78.664932
20
3.231971
11
78.884350
21
2.452932
0
LINE
8
Layer 1
10
78.884350
20
2.452932
11
79.228370
21
1.779809
0
LINE
8
Layer 1
10
79.228370
20
1.779809
11
79.679257
21
1.213305
0
LINE
8
Layer 1
10
79.679257
20
1.213305
11
80.830689
21
0.402964
0
LINE
8
Layer 1
10
80.830689
20
0.402964
11
82.196765
21
0.027532
0
LINE
8
Layer 1
10
82.196765
20
0.027532
11
83.635600
21
0.092630
0
LINE
8
Layer 1
10
83.635600
20
0.092630
11
85.005313
21
0.603882
0
LINE
8
Layer 1
10
85.005313
20
0.603882
11
86.164021
21
1.566908
0
LINE
8
Layer 1
10
86.164021
20
1.566908
11
86.619910
21
2.219595
0
LINE
8
Layer 1
10
86.619910
20
2.219595
11
86.969842
21
2.987333
0
LINE
8
Layer 1
10
86.969842
20
2.987333
11
88.324631
21
7.370153
0
LINE
8
Layer 1
10
88.324631
20
7.370153
11
89.361816
21
11.824414
0
LINE
8
Layer 1
10
89.361816
20
11.824414
11
90.176752
21
16.326310
0
LINE
8
Layer 1
10
90.176752
20
16.326310
11
90.864792
21
20.852033
0
LINE
8
Layer 1
10
90.864792
20
20.852033
11
91.288125
21
23.194473
0
LINE
8
Layer 1
10
91.288125
20
23.194473
11
102.962392
21
23.378918
0
LINE
8
Layer 1
10
102.962392
20
23.378918
11
114.641938
21
23.018190
0
LINE
8
Layer 1
10
114.641938
20
23.018190
11
120.475413
21
22.621835
0
LINE
8
Layer 1
10
120.475413
20
22.621835
11
126.300277
21
22.075326
0
LINE
8
Layer 1
10
126.300277
20
22.075326
11
132.113217
21
21.374042
0
LINE
8
Layer 1
10
132.113217
20
21.374042
11
137.910925
21
20.513363
0
LINE
8
Layer 1
10
137.910925
20
20.513363
11
139.219911
21
20.484098
0
LINE
8
Layer 1
10
139.219911
20
20.484098
11
140.391593
21
20.770645
0
LINE
8
Layer 1
10
140.391593
20
20.770645
11
141.389271
21
21.331669
0
LINE
8
Layer 1
10
141.389271
20
21.331669
11
142.176241
21
22.125833
0
LINE
8
Layer 1
10
142.176241
20
22.125833
11
142.715801
21
23.111803
0
LINE
8
Layer 1
10
142.715801
20
23.111803
11
142.971249
21
24.248245
0
LINE
8
Layer 1
10
142.971249
20
24.248245
11
142.905883
21
25.493822
0
LINE
8
Layer 1
10
142.905883
20
25.493822
11
142.483000
21
26.807200
0
LINE
8
Layer 1
10
142.483000
20
26.807200
11
142.483000
21
26.807200
0
LINE
8
Layer 1
10
40.573100
20
25.057500
11
43.592880
21
26.440110
0
LINE
8
Layer 1
10
43.592880
20
26.440110
11
48.249540
21
26.609725
0
LINE
8
Layer 1
10
48.249540
20
26.609725
11
40.573100
21
25.057500
0
LINE
8
Layer 1
10
40.573100
20
25.057500
11
40.573100
21
25.057500
 0 
ENDSEC
 0 
EOF