0
SECTION
2
HEADER
9
$INSUNITS
70
4
9
$ACADVER
1
AC1014
9
$HANDSEED
5
FFFF
0
ENDSEC
0
SECTION
2
TABLES
0
TABLE
2
VPORT
5
8
100
AcDbSymbolTable
0
ENDTAB
0
TABLE
2
LTYPE
5
5
100
AcDbSymbolTable
0
LTYPE
5
14
100
AcDbSymbolTableRecord
100
AcDbLinetypeTableRecord
2
BYBLOCK
70
0
0
LTYPE
5
15
100
AcDbSymbolTableRecord
100
AcDbLinetypeTableRecord
2
BYLAYER
70
0
0
ENDTAB
0
TABLE
2
LAYER
5
2
100
AcDbSymbolTable
70
2
0
LAYER
5
50
100
AcDbSymbolTableRecord
100
AcDbLayerTableRecord
2
0
70
0
6
CONTINUOUS
0
ENDTAB
0
TABLE
2
STYLE
5
3
100
AcDbSymbolTable
70
1
0
STYLE
5
11
100
AcDbSymbolTableRecord
100
AcDbTextStyleTableRecord
2
STANDARD
70
0
0
ENDTAB
0
TABLE
2
VIEW
5
6
100
AcDbSymbolTable
70
0
0
ENDTAB
0
TABLE
2
UCS
5
7
100
AcDbSymbolTable
70
0
0
ENDTAB
0
TABLE
2
APPID
5
9
100
AcDbSymbolTable
70
2
0
APPID
5
12
100
AcDbSymbolTableRecord
100
AcDbRegAppTableRecord
2
ACAD
70
0
0
ENDTAB
0
TABLE
2
DIMSTYLE
5
A
100
AcDbSymbolTable
70
1
0
ENDTAB
0
TABLE
2
BLOCK_RECORD
5
1
100
AcDbSymbolTable
70
1
0
BLOCK_RECORD
5
1F
100
AcDbSymbolTableRecord
100
AcDbBlockTableRecord
2
*MODEL_SPACE
0
BLOCK_RECORD
5
1B
100
AcDbSymbolTableRecord
100
AcDbBlockTableRecord
2
*PAPER_SPACE
0
ENDTAB
0
ENDSEC
0
SECTION
2
BLOCKS
0
BLOCK
5
20
100
AcDbEntity
100
AcDbBlockBegin
2
*MODEL_SPACE
0
ENDBLK
5
21
100
AcDbEntity
100
AcDbBlockEnd
0
BLOCK
5
1C
100
AcDbEntity
100
AcDbBlockBegin
2
*PAPER_SPACE
0
ENDBLK
5
1D
100
AcDbEntity
100
AcDbBlockEnd
0
ENDSEC
0
SECTION
2
ENTITIES
0
LWPOLYLINE
5
100
100
AcDbEntity
8
0
100
AcDbPolyline
90
141
70
1
43
0.0
10
82.196764999999999
20
0.027532000000000004
10
83.635599999999997
20
0.09262999999999999
10
85.005313000000001
20
0.60388199999999992
10
86.164021000000005
20
1.5669080000000002
10
86.619910000000004
20
2.219595
10
86.969842000000014
20
2.9873330000000005
10
88.324631000000011
20
7.3701530000000002
10
89.361816000000005
20
11.824413999999999
10
90.176752000000008
20
16.326309999999999
10
90.864792000000008
20
20.852032999999999
10
91.288125000000008
20
23.194473000000002
10
102.96239200000002
20
23.378917999999999
10
114.64193799999998
20
23.018190000000001
10
120.47541299999999
20
22.621835000000004
10
126.30027700000001
20
22.075326
10
132.11321699999999
20
21.374042000000003
10
137.91092499999999
20
20.513363000000005
10
139.219911
20
20.484097999999999
10
140.391593
20
20.770645000000002
10
141.38927100000001
20
21.331669000000005
10
142.176241
20
22.125833
10
142.715801
20
23.111802999999998
10
142.971249
20
24.248245000000001
10
142.90588300000002
20
25.493822000000002
10
142.483
20
26.807200000000005
10
140.002037
20
31.724712000000004
10
137.19266299999998
20
36.513897
10
134.11540600000001
20
41.184014000000005
10
130.83079300000003
20
45.744325000000003
10
123.88160000000001
20
54.572566000000009
10
116.8293
20
63.072699999999998
10
112.22199099999999
20
68.745367999999999
10
106.6408
20
75.349400000000003
10
117.2526
20
76.901619999999994
10
118.36959899999999
20
77.258904999999999
10
119.20947
20
77.902581999999995
10
119.78345500000002
20
78.761880000000005
10
120.10279500000001
20
79.766031000000027
10
120.17873200000002
20
80.844266000000005
10
120.022508
20
81.925815000000014
10
119.64536299999999
20
82.939909999999998
10
119.05853999999999
20
83.815780000000018
10
111.304053
20
92.498942
10
103.271765
20
100.89373000000002
10
94.884990000000016
20
108.93399299999999
10
90.534705000000017
20
112.80050500000002
10
86.067040000000006
20
116.55358000000001
10
91.595387000000002
20
116.404972
10
97.189988000000014
20
116.46538500000003
10
99.900475999999998
20
116.751741
10
102.49353900000001
20
117.303673
10
104.924515
20
118.19228700000002
10
107.14874
20
119.48869000000001
10
108.011622
20
120.09155300000002
10
108.64896399999999
20
120.88789300000001
10
109.05480300000001
20
121.81983200000002
10
109.223175
20
122.829493
10
109.14811800000001
20
123.85899700000002
10
108.823668
20
124.85046799999999
10
108.243863
20
125.74602800000001
10
107.40273999999999
20
126.48780000000001
10
97.356073999999992
20
133.232461
10
87.460215000000005
20
140.10147599999999
10
82.672190999999998
20
143.727315
10
78.045893000000007
20
147.55787900000001
10
73.622662000000005
20
151.65104700000001
10
69.443840000000009
20
156.06469999999999
10
69.016979000000006
20
156.46686599999998
10
68.568951999999996
20
156.74203300000002
10
69.103079000000008
20
157.75985200000002
10
69.206598
20
158.756834
10
68.948960999999997
20
159.66451999999998
10
68.399620999999996
20
160.41444799999999
10
67.628031000000007
20
160.93815700000005
10
66.703643999999997
20
161.16718700000004
10
65.695914000000002
20
161.03307599999999
10
64.674292000000008
20
160.46736299999998
10
61.92854100000001
20
158.16436100000001
10
59.313511000000005
20
155.73026800000002
10
56.817047000000002
20
153.17818700000001
10
54.426994999999998
20
150.52122600000001
10
49.917509000000003
20
144.945077
10
45.687816999999995
20
139.106663
10
37.678876000000002
20
127.06240100000001
10
33.705157
20
121.06623300000003
10
29.622291999999998
20
115.22716299999999
10
29.155745
20
114.27295600000001
10
29.022571999999997
20
113.218538
10
29.185732000000005
20
112.140968
10
29.608182000000003
20
111.11730700000003
10
30.252882000000003
20
110.22461399999999
10
31.082790000000003
20
109.53994899999999
10
32.060862999999998
20
109.14037200000001
10
33.150061999999998
20
109.10294300000001
10
45.285608000000003
20
110.944444
10
57.42116200000001
20
112.91294300000001
10
54.923497999999995
20
107.05683300000003
10
53.857228000000006
20
104.65000400000001
10
52.933832000000002
20
102.89404300000001
10
47.400075999999999
20
94.101947999999993
10
41.704929999999997
20
85.389231000000024
10
36.078583999999999
20
76.644769999999994
10
30.751232000000002
20
67.757443000000009
10
30.312190999999999
20
66.591731999999993
10
30.255141000000002
20
65.406177999999997
10
30.533450000000002
20
64.270895999999993
10
31.100484999999999
20
63.255999000000003
10
31.909613
20
62.431603000000003
10
32.914202000000003
20
61.867821999999997
10
34.067619000000001
20
61.634770000000003
10
35.323231999999997
20
61.802562999999999
10
43.620562999999997
20
64.088456000000008
10
51.917932
20
66.120563000000004
10
43.537713000000011
20
54.174649000000002
10
35.041057000000002
20
42.308076
10
26.692563000000003
20
30.346196000000006
10
22.656565000000001
20
24.274939
10
18.756832000000003
20
18.114363000000001
10
18.272974999999999
20
16.917082000000001
10
18.203851999999998
20
15.700968
10
18.495885000000001
20
14.537123000000003
10
19.095496000000001
20
13.496645999999998
10
19.949107000000001
20
12.650637
10
21.003140999999999
20
12.070196000000003
10
22.204017999999998
20
11.826425
10
23.498162000000001
20
11.990423000000002
10
30.098579000000001
20
13.834942000000003
10
36.751581999999999
20
15.533590000000002
10
43.451547000000005
20
17.080750999999999
10
50.19285
20
18.470810999999998
10
56.96986600000001
20
19.698153000000001
10
63.776973000000005
20
20.757163000000002
10
70.60854599999999
20
21.642225000000003
10
77.458962000000014
20
22.347723000000002
10
78.213906000000009
20
13.306158999999999
10
78.587851999999998
20
4.1162230000000015
10
78.664931999999993
20
3.2319710000000001
10
78.884349999999998
20
2.4529320000000001
10
79.228369999999998
20
1.779809
10
79.679256999999993
20
1.2133049999999999
10
80.830689000000007
20
0.40296400000000004
0
LWPOLYLINE
5
101
100
AcDbEntity
8
0
100
AcDbPolyline
90
1
70
1
43
0.0
10
142.483
20
26.807200000000005
0
ENDSEC
0
SECTION
2
OBJECTS
0
DICTIONARY
5
C
100
AcDbDictionary
3
ACAD_GROUP
350
D
3
ACAD_MLINESTYLE
350
17
0
DICTIONARY
5
D
100
AcDbDictionary
0
DICTIONARY
5
1A
330
C
100
AcDbDictionary
0
DICTIONARY
5
17
100
AcDbDictionary
0
ENDSEC
0
EOF
