999
"DXF R12 Output" (www.mydxf.blogspot.com)
 0 
SECTION
 2 
HEADER
 9 
$ACADVER
 1 
AC1009
 9 
$EXTMIN
 10 
 0 
 20 
 0 
 9 
$EXTMAX
 10 
 8.5 
 20 
 11 
 0 
ENDSEC
 0 
SECTION
 2 
ENTITIES
0
LINE
8
Layer 1
10
68.565600
20
42.221300
11
68.305740
21
42.753355
0
LINE
8
Layer 1
10
68.305740
20
42.753355
11
67.916948
21
43.185476
0
LINE
8
Layer 1
10
67.916948
20
43.185476
11
67.425340
21
43.495624
0
LINE
8
Layer 1
10
67.425340
20
43.495624
11
66.857030
21
43.661760
0
LINE
8
Layer 1
10
66.857030
20
43.661760
11
45.696030
21
46.737980
0
LINE
8
Layer 1
10
45.696030
20
46.737980
11
36.233130
21
65.912380
0
LINE
8
Layer 1
10
36.233130
20
65.912380
11
35.899350
21
66.401550
0
LINE
8
Layer 1
10
35.899350
20
66.401550
11
35.452434
21
66.773298
0
LINE
8
Layer 1
10
35.452434
20
66.773298
11
34.921382
21
67.009580
0
LINE
8
Layer 1
10
34.921382
20
67.009580
11
34.335190
21
67.092350
0
LINE
8
Layer 1
10
34.335190
20
67.092350
11
33.748833
21
67.009580
0
LINE
8
Layer 1
10
33.748833
20
67.009580
11
33.217695
21
66.773298
0
LINE
8
Layer 1
10
33.217695
20
66.773298
11
32.770746
21
66.401550
0
LINE
8
Layer 1
10
32.770746
20
66.401550
11
32.436960
21
65.912380
0
LINE
8
Layer 1
10
32.436960
20
65.912380
11
22.974000
21
46.738000
0
LINE
8
Layer 1
10
22.974000
20
46.738000
11
1.812430
21
43.661800
0
LINE
8
Layer 1
10
1.812430
20
43.661800
11
1.243955
21
43.495503
0
LINE
8
Layer 1
10
1.243955
20
43.495503
11
0.752263
21
43.185300
0
LINE
8
Layer 1
10
0.752263
20
43.185300
11
0.363440
21
42.753222
0
LINE
8
Layer 1
10
0.363440
20
42.753222
11
0.103575
21
42.221300
0
LINE
8
Layer 1
10
0.103575
20
42.221300
11
0.001097
21
41.638124
0
LINE
8
Layer 1
10
0.001097
20
41.638124
11
0.061630
21
41.060029
0
LINE
8
Layer 1
10
0.061630
20
41.060029
11
0.277049
21
40.520139
0
LINE
8
Layer 1
10
0.277049
20
40.520139
11
0.639232
21
40.051580
0
LINE
8
Layer 1
10
0.639232
20
40.051580
11
15.951732
21
25.125980
0
LINE
8
Layer 1
10
15.951732
20
25.125980
11
12.337300
21
4.051950
0
LINE
8
Layer 1
10
12.337300
20
4.051950
11
12.319816
21
3.460012
0
LINE
8
Layer 1
10
12.319816
20
3.460012
11
12.462854
21
2.896569
0
LINE
8
Layer 1
10
12.462854
20
2.896569
11
12.753582
21
2.393292
0
LINE
8
Layer 1
10
12.753582
20
2.393292
11
13.179168
21
1.981850
0
LINE
8
Layer 1
10
13.179168
20
1.981850
11
13.702072
21
1.704139
0
LINE
8
Layer 1
10
13.702072
20
1.704139
11
14.270590
21
1.583035
0
LINE
8
Layer 1
10
14.270590
20
1.583035
11
14.850644
21
1.621051
0
LINE
8
Layer 1
10
14.850644
20
1.621051
11
15.408158
21
1.820701
0
LINE
8
Layer 1
10
15.408158
20
1.820701
11
34.335058
21
11.770151
0
LINE
8
Layer 1
10
34.335058
20
11.770151
11
53.261758
21
1.820701
0
LINE
8
Layer 1
10
53.261758
20
1.820701
11
54.246431
21
1.577708
0
LINE
8
Layer 1
10
54.246431
20
1.577708
11
54.252358
21
1.577708
0
LINE
8
Layer 1
10
54.252358
20
1.577708
11
54.252640
21
1.577708
0
LINE
8
Layer 1
10
54.252640
20
1.577708
11
55.076523
21
1.744051
0
LINE
8
Layer 1
10
55.076523
20
1.744051
11
55.749330
21
2.197678
0
LINE
8
Layer 1
10
55.749330
20
2.197678
11
56.202957
21
2.870485
0
LINE
8
Layer 1
10
56.202957
20
2.870485
11
56.369300
21
3.694368
0
LINE
8
Layer 1
10
56.369300
20
3.694368
11
56.306364
21
4.209141
0
LINE
8
Layer 1
10
56.306364
20
4.209141
11
52.718474
21
25.126541
0
LINE
8
Layer 1
10
52.718474
20
25.126541
11
68.030174
21
40.051841
0
LINE
8
Layer 1
10
68.030174
20
40.051841
11
68.392227
21
40.520149
0
LINE
8
Layer 1
10
68.392227
20
40.520149
11
68.607647
21
41.059980
0
LINE
8
Layer 1
10
68.607647
20
41.059980
11
68.668187
21
41.638107
0
LINE
8
Layer 1
10
68.668187
20
41.638107
11
68.565600
21
42.221300
0
LINE
8
Layer 1
10
68.565600
20
42.221300
11
68.565600
21
42.221300
0
LINE
8
Layer 1
10
48.966600
20
27.380700
11
48.430872
21
26.519004
0
LINE
8
Layer 1
10
48.430872
20
26.519004
11
48.357847
21
25.507030
0
LINE
8
Layer 1
10
48.357847
20
25.507030
11
51.435757
21
7.563030
0
LINE
8
Layer 1
10
51.435757
20
7.563030
11
35.320357
21
16.034770
0
LINE
8
Layer 1
10
35.320357
20
16.034770
11
34.335439
21
16.277975
0
LINE
8
Layer 1
10
34.335439
20
16.277975
11
33.350727
21
16.034770
0
LINE
8
Layer 1
10
33.350727
20
16.034770
11
17.235027
21
7.563030
0
LINE
8
Layer 1
10
17.235027
20
7.563030
11
20.312937
21
25.507030
0
LINE
8
Layer 1
10
20.312937
20
25.507030
11
20.239912
21
26.518901
0
LINE
8
Layer 1
10
20.239912
20
26.518901
11
19.704184
21
27.380700
0
LINE
8
Layer 1
10
19.704184
20
27.380700
11
6.665784
21
40.089400
0
LINE
8
Layer 1
10
6.665784
20
40.089400
11
24.684784
21
42.708700
0
LINE
8
Layer 1
10
24.684784
20
42.708700
11
25.624618
21
43.090935
0
LINE
8
Layer 1
10
25.624618
20
43.090935
11
26.278494
21
43.866660
0
LINE
8
Layer 1
10
26.278494
20
43.866660
11
34.335934
21
60.192960
0
LINE
8
Layer 1
10
34.335934
20
60.192960
11
42.393374
21
43.866660
0
LINE
8
Layer 1
10
42.393374
20
43.866660
11
43.047212
21
43.091042
0
LINE
8
Layer 1
10
43.047212
20
43.091042
11
43.986804
21
42.708700
0
LINE
8
Layer 1
10
43.986804
20
42.708700
11
62.005004
21
40.089400
0
LINE
8
Layer 1
10
62.005004
20
40.089400
11
48.966600
21
27.380700
0
LINE
8
Layer 1
10
48.966600
20
27.380700
11
48.966600
21
27.380700
 0 
ENDSEC
 0 
EOF