0
SECTION
2
HEADER
9
$INSUNITS
70
4
9
$ACADVER
1
AC1014
9
$HANDSEED
5
FFFF
0
ENDSEC
0
SECTION
2
TABLES
0
TABLE
2
VPORT
5
8
100
AcDbSymbolTable
0
ENDTAB
0
TABLE
2
LTYPE
5
5
100
AcDbSymbolTable
0
LTYPE
5
14
100
AcDbSymbolTableRecord
100
AcDbLinetypeTableRecord
2
BYBLOCK
70
0
0
LTYPE
5
15
100
AcDbSymbolTableRecord
100
AcDbLinetypeTableRecord
2
BYLAYER
70
0
0
ENDTAB
0
TABLE
2
LAYER
5
2
100
AcDbSymbolTable
70
2
0
LAYER
5
50
100
AcDbSymbolTableRecord
100
AcDbLayerTableRecord
2
0
70
0
6
CONTINUOUS
0
ENDTAB
0
TABLE
2
STYLE
5
3
100
AcDbSymbolTable
70
1
0
STYLE
5
11
100
AcDbSymbolTableRecord
100
AcDbTextStyleTableRecord
2
STANDARD
70
0
0
ENDTAB
0
TABLE
2
VIEW
5
6
100
AcDbSymbolTable
70
0
0
ENDTAB
0
TABLE
2
UCS
5
7
100
AcDbSymbolTable
70
0
0
ENDTAB
0
TABLE
2
APPID
5
9
100
AcDbSymbolTable
70
2
0
APPID
5
12
100
AcDbSymbolTableRecord
100
AcDbRegAppTableRecord
2
ACAD
70
0
0
ENDTAB
0
TABLE
2
DIMSTYLE
5
A
100
AcDbSymbolTable
70
1
0
ENDTAB
0
TABLE
2
BLOCK_RECORD
5
1
100
AcDbSymbolTable
70
1
0
BLOCK_RECORD
5
1F
100
AcDbSymbolTableRecord
100
AcDbBlockTableRecord
2
*MODEL_SPACE
0
BLOCK_RECORD
5
1B
100
AcDbSymbolTableRecord
100
AcDbBlockTableRecord
2
*PAPER_SPACE
0
ENDTAB
0
ENDSEC
0
SECTION
2
BLOCKS
0
BLOCK
5
20
100
AcDbEntity
100
AcDbBlockBegin
2
*MODEL_SPACE
0
ENDBLK
5
21
100
AcDbEntity
100
AcDbBlockEnd
0
BLOCK
5
1C
100
AcDbEntity
100
AcDbBlockBegin
2
*PAPER_SPACE
0
ENDBLK
5
1D
100
AcDbEntity
100
AcDbBlockEnd
0
ENDSEC
0
SECTION
2
ENTITIES
0
LWPOLYLINE
5
100
100
AcDbEntity
8
0
100
AcDbPolyline
90
50
70
1
43
0.0
10
56.306364000000002
20
4.2091410000000007
10
52.718474000000001
20
25.126541000000003
10
68.030174000000002
20
40.051841000000003
10
68.392227000000005
20
40.520148999999996
10
68.607647000000014
20
41.059979999999996
10
68.668187000000003
20
41.638106999999998
10
68.565600000000003
20
42.221299999999999
10
68.30574
20
42.753354999999999
10
67.916948000000005
20
43.185476000000008
10
67.425340000000006
20
43.495623999999999
10
66.857030000000009
20
43.661760000000001
10
45.69603
20
46.737980000000007
10
36.233129999999996
20
65.912380000000013
10
35.899349999999998
20
66.40155
10
35.452434000000004
20
66.773297999999997
10
34.921382000000001
20
67.00958
10
34.335190000000004
20
67.092349999999996
10
33.748833000000005
20
67.00958
10
33.217695000000006
20
66.773297999999997
10
32.770746000000003
20
66.40155
10
32.436959999999999
20
65.912380000000013
10
22.974
20
46.738
10
1.8124299999999982
20
43.661799999999999
10
1.2439549999999999
20
43.495502999999999
10
0.75226300000000013
20
43.185299999999998
10
0.36343999999999999
20
42.753221999999994
10
0.103575
20
42.221299999999999
10
0.0010970000000000077
20
41.638124000000005
10
0.061630000000000004
20
41.060029
10
0.27704900000000005
20
40.520139
10
0.63923200000000002
20
40.051580000000008
10
15.951732000000003
20
25.125980000000002
10
12.337300000000003
20
4.0519499999999997
10
12.319816000000001
20
3.4600120000000008
10
12.462854
20
2.8965689999999999
10
12.753582000000003
20
2.3932919999999998
10
13.179167999999999
20
1.9818500000000001
10
13.702072000000001
20
1.7041390000000001
10
14.270589999999999
20
1.5830350000000002
10
14.850644000000003
20
1.621051
10
15.408157999999998
20
1.8207010000000001
10
34.335058000000004
20
11.770151
10
53.261758
20
1.8207010000000001
10
54.246431000000008
20
1.5777079999999999
10
54.252357999999994
20
1.5777079999999999
10
54.25264
20
1.5777079999999999
10
55.076523000000002
20
1.7440509999999998
10
55.749330000000015
20
2.1976779999999998
10
56.202956999999998
20
2.870485
10
56.369300000000003
20
3.6943679999999999
0
LWPOLYLINE
5
101
100
AcDbEntity
8
0
100
AcDbPolyline
90
1
70
1
43
0.0
10
68.565600000000003
20
42.221299999999999
0
LINE
5
102
100
AcDbEntity
8
0
100
AcDbLine
10
48.966600000000007
20
27.380700000000004
30
0
11
48.966600000000007
21
27.380700000000004
31
0
0
ENDSEC
0
SECTION
2
OBJECTS
0
DICTIONARY
5
C
100
AcDbDictionary
3
ACAD_GROUP
350
D
3
ACAD_MLINESTYLE
350
17
0
DICTIONARY
5
D
100
AcDbDictionary
0
DICTIONARY
5
1A
330
C
100
AcDbDictionary
0
DICTIONARY
5
17
100
AcDbDictionary
0
ENDSEC
0
EOF
